<svg width="626" height="492" viewBox="0 0 626 492" fill="none" xmlns="http://www.w3.org/2000/svg">
<g clip-path="url(#clip0_4_1007)">
<rect width="626" height="492" fill="white"/>
<rect width="626" height="492" fill="#D9D9D9"/>
<ellipse cx="313" cy="246" rx="212" ry="175" stroke="black" stroke-width="5"/>
<rect x="302" width="324" height="268" fill="#D9D9D9"/>
<path d="M517 250L113 250" stroke="black" stroke-width="5"/>
<rect x="213.75" y="46.75" width="198.5" height="98.5" rx="6.25" fill="white" stroke="#292C33" stroke-width="1.5"/>
<path d="M246.823 83C246.683 82.5696 246.497 82.1839 246.267 81.843C246.041 81.4979 245.771 81.2038 245.455 80.9609C245.144 80.718 244.79 80.5327 244.394 80.4048C243.998 80.277 243.563 80.2131 243.09 80.2131C242.315 80.2131 241.609 80.4134 240.974 80.8139C240.339 81.2145 239.835 81.8047 239.46 82.5845C239.085 83.3643 238.897 84.321 238.897 85.4545C238.897 86.5881 239.087 87.5447 239.466 88.3246C239.845 89.1044 240.359 89.6946 241.006 90.0952C241.654 90.4957 242.383 90.696 243.192 90.696C243.942 90.696 244.603 90.5362 245.174 90.2166C245.749 89.8928 246.197 89.4368 246.516 88.8487C246.84 88.2564 247.002 87.5597 247.002 86.7585L247.488 86.8608H243.55V85.4545H248.536V86.8608C248.536 87.9389 248.306 88.8764 247.846 89.6733C247.39 90.4702 246.759 91.0881 245.954 91.527C245.153 91.9616 244.232 92.179 243.192 92.179C242.033 92.179 241.015 91.9062 240.137 91.3608C239.263 90.8153 238.582 90.0398 238.092 89.0341C237.606 88.0284 237.363 86.8352 237.363 85.4545C237.363 84.419 237.501 83.4879 237.778 82.6612C238.06 81.8303 238.456 81.1229 238.967 80.5391C239.479 79.9553 240.084 79.5078 240.783 79.1967C241.482 78.8857 242.251 78.7301 243.09 78.7301C243.781 78.7301 244.424 78.8345 245.021 79.0433C245.621 79.2479 246.156 79.5398 246.625 79.919C247.098 80.294 247.492 80.7436 247.808 81.2678C248.123 81.7876 248.34 82.3651 248.46 83H246.823ZM255.163 92.2045C254.217 92.2045 253.401 91.9957 252.715 91.5781C252.033 91.1562 251.507 90.5682 251.136 89.8139C250.77 89.0554 250.586 88.1733 250.586 87.1676C250.586 86.1619 250.77 85.2756 251.136 84.5085C251.507 83.7372 252.023 83.1364 252.683 82.706C253.348 82.2713 254.123 82.054 255.01 82.054C255.521 82.054 256.026 82.1392 256.525 82.3097C257.023 82.4801 257.477 82.7571 257.886 83.1406C258.295 83.5199 258.621 84.0227 258.864 84.6491C259.107 85.2756 259.229 86.0469 259.229 86.9631V87.6023H251.66V86.2983H257.694C257.694 85.7443 257.584 85.25 257.362 84.8153C257.145 84.3807 256.834 84.0376 256.429 83.7862C256.028 83.5348 255.555 83.4091 255.01 83.4091C254.409 83.4091 253.889 83.5582 253.45 83.8565C253.015 84.1506 252.681 84.5341 252.447 85.0071C252.212 85.4801 252.095 85.9872 252.095 86.5284V87.3977C252.095 88.1392 252.223 88.7678 252.479 89.2834C252.738 89.7947 253.099 90.1847 253.559 90.4531C254.019 90.7173 254.554 90.8494 255.163 90.8494C255.559 90.8494 255.917 90.794 256.237 90.6832C256.561 90.5682 256.84 90.3977 257.074 90.1719C257.309 89.9418 257.49 89.6562 257.618 89.3153L259.075 89.7244C258.922 90.2188 258.664 90.6534 258.302 91.0284C257.939 91.3991 257.492 91.6889 256.959 91.8977C256.427 92.1023 255.828 92.2045 255.163 92.2045ZM263.032 86.0938V92H261.523V82.1818H262.981V83.7159H263.108C263.339 83.2173 263.688 82.8168 264.157 82.5142C264.626 82.2074 265.231 82.054 265.972 82.054C266.637 82.054 267.219 82.1903 267.717 82.4631C268.216 82.7315 268.604 83.1406 268.881 83.6903C269.157 84.2358 269.296 84.9261 269.296 85.7614V92H267.787V85.8636C267.787 85.0923 267.587 84.4915 267.187 84.0611C266.786 83.6264 266.236 83.4091 265.537 83.4091C265.056 83.4091 264.626 83.5135 264.246 83.7223C263.871 83.9311 263.575 84.2358 263.358 84.6364C263.14 85.0369 263.032 85.5227 263.032 86.0938ZM276.169 92.2045C275.223 92.2045 274.407 91.9957 273.721 91.5781C273.039 91.1562 272.513 90.5682 272.142 89.8139C271.776 89.0554 271.592 88.1733 271.592 87.1676C271.592 86.1619 271.776 85.2756 272.142 84.5085C272.513 83.7372 273.028 83.1364 273.689 82.706C274.354 82.2713 275.129 82.054 276.016 82.054C276.527 82.054 277.032 82.1392 277.531 82.3097C278.029 82.4801 278.483 82.7571 278.892 83.1406C279.301 83.5199 279.627 84.0227 279.87 84.6491C280.113 85.2756 280.234 86.0469 280.234 86.9631V87.6023H272.666V86.2983H278.7C278.7 85.7443 278.589 85.25 278.368 84.8153C278.151 84.3807 277.839 84.0376 277.435 83.7862C277.034 83.5348 276.561 83.4091 276.016 83.4091C275.415 83.4091 274.895 83.5582 274.456 83.8565C274.021 84.1506 273.687 84.5341 273.452 85.0071C273.218 85.4801 273.101 85.9872 273.101 86.5284V87.3977C273.101 88.1392 273.229 88.7678 273.484 89.2834C273.744 89.7947 274.104 90.1847 274.565 90.4531C275.025 90.7173 275.56 90.8494 276.169 90.8494C276.565 90.8494 276.923 90.794 277.243 90.6832C277.567 90.5682 277.846 90.3977 278.08 90.1719C278.315 89.9418 278.496 89.6562 278.624 89.3153L280.081 89.7244C279.928 90.2188 279.67 90.6534 279.308 91.0284C278.945 91.3991 278.498 91.6889 277.965 91.8977C277.433 92.1023 276.834 92.2045 276.169 92.2045ZM282.529 92V82.1818H283.987V83.6648H284.089C284.268 83.179 284.592 82.7848 285.06 82.4822C285.529 82.1797 286.058 82.0284 286.646 82.0284C286.756 82.0284 286.895 82.0305 287.061 82.0348C287.227 82.0391 287.353 82.0455 287.438 82.054V83.5881C287.387 83.5753 287.27 83.5561 287.087 83.5305C286.908 83.5007 286.718 83.4858 286.518 83.4858C286.04 83.4858 285.614 83.5859 285.239 83.7862C284.869 83.9822 284.575 84.255 284.357 84.6044C284.144 84.9496 284.038 85.3437 284.038 85.7869V92H282.529ZM292.116 92.2301C291.493 92.2301 290.929 92.1129 290.422 91.8786C289.915 91.6399 289.512 91.2969 289.214 90.8494C288.915 90.3977 288.766 89.8523 288.766 89.2131C288.766 88.6506 288.877 88.1946 289.099 87.8452C289.32 87.4915 289.616 87.2145 289.987 87.0142C290.358 86.8139 290.767 86.6648 291.214 86.5668C291.666 86.4645 292.12 86.3835 292.576 86.3239C293.172 86.2472 293.656 86.1896 294.027 86.1513C294.402 86.1087 294.675 86.0384 294.845 85.9403C295.02 85.8423 295.107 85.6719 295.107 85.429V85.3778C295.107 84.7472 294.934 84.2571 294.589 83.9077C294.248 83.5582 293.731 83.3835 293.036 83.3835C292.316 83.3835 291.751 83.5412 291.342 83.8565C290.933 84.1719 290.645 84.5085 290.479 84.8665L289.047 84.3551C289.303 83.7585 289.644 83.294 290.07 82.9616C290.501 82.625 290.969 82.3906 291.476 82.2585C291.988 82.1222 292.491 82.054 292.985 82.054C293.3 82.054 293.662 82.0923 294.072 82.169C294.485 82.2415 294.883 82.3928 295.267 82.6229C295.655 82.853 295.976 83.2003 296.232 83.6648C296.488 84.1293 296.616 84.7514 296.616 85.5312V92H295.107V90.6705H295.03C294.928 90.8835 294.758 91.1115 294.519 91.3544C294.28 91.5973 293.963 91.804 293.567 91.9744C293.17 92.1449 292.687 92.2301 292.116 92.2301ZM292.346 90.875C292.942 90.875 293.445 90.7578 293.854 90.5234C294.268 90.2891 294.579 89.9865 294.787 89.6158C295.001 89.245 295.107 88.8551 295.107 88.446V87.0653C295.043 87.142 294.903 87.2124 294.685 87.2763C294.472 87.3359 294.225 87.3892 293.944 87.4361C293.667 87.4787 293.396 87.517 293.132 87.5511C292.872 87.581 292.661 87.6065 292.499 87.6278C292.107 87.679 291.741 87.7621 291.4 87.8771C291.063 87.9879 290.79 88.1562 290.581 88.3821C290.377 88.6037 290.275 88.9062 290.275 89.2898C290.275 89.8139 290.469 90.2102 290.856 90.4787C291.248 90.7429 291.745 90.875 292.346 90.875ZM303.639 82.1818V83.4602H298.551V82.1818H303.639ZM300.034 79.8295H301.542V89.1875C301.542 89.6136 301.604 89.9332 301.728 90.1463C301.855 90.3551 302.017 90.4957 302.213 90.5682C302.414 90.6364 302.625 90.6705 302.846 90.6705C303.012 90.6705 303.149 90.6619 303.255 90.6449C303.362 90.6236 303.447 90.6065 303.511 90.5938L303.818 91.9489C303.716 91.9872 303.573 92.0256 303.39 92.0639C303.206 92.1065 302.974 92.1278 302.693 92.1278C302.267 92.1278 301.849 92.0362 301.44 91.853C301.035 91.6697 300.699 91.3906 300.43 91.0156C300.166 90.6406 300.034 90.1676 300.034 89.5966V79.8295ZM309.919 92.2045C308.973 92.2045 308.157 91.9957 307.471 91.5781C306.789 91.1562 306.263 90.5682 305.892 89.8139C305.526 89.0554 305.342 88.1733 305.342 87.1676C305.342 86.1619 305.526 85.2756 305.892 84.5085C306.263 83.7372 306.778 83.1364 307.439 82.706C308.104 82.2713 308.879 82.054 309.766 82.054C310.277 82.054 310.782 82.1392 311.281 82.3097C311.779 82.4801 312.233 82.7571 312.642 83.1406C313.051 83.5199 313.377 84.0227 313.62 84.6491C313.863 85.2756 313.984 86.0469 313.984 86.9631V87.6023H306.416V86.2983H312.45C312.45 85.7443 312.339 85.25 312.118 84.8153C311.901 84.3807 311.589 84.0376 311.185 83.7862C310.784 83.5348 310.311 83.4091 309.766 83.4091C309.165 83.4091 308.645 83.5582 308.206 83.8565C307.771 84.1506 307.437 84.5341 307.202 85.0071C306.968 85.4801 306.851 85.9872 306.851 86.5284V87.3977C306.851 88.1392 306.979 88.7678 307.234 89.2834C307.494 89.7947 307.854 90.1847 308.315 90.4531C308.775 90.7173 309.31 90.8494 309.919 90.8494C310.315 90.8494 310.673 90.794 310.993 90.6832C311.317 90.5682 311.596 90.3977 311.83 90.1719C312.065 89.9418 312.246 89.6562 312.374 89.3153L313.831 89.7244C313.678 90.2188 313.42 90.6534 313.058 91.0284C312.695 91.3991 312.248 91.6889 311.715 91.8977C311.183 92.1023 310.584 92.2045 309.919 92.2045ZM321.546 92V78.9091H325.969C326.992 78.9091 327.832 79.0838 328.488 79.4332C329.144 79.7784 329.63 80.2536 329.945 80.8587C330.261 81.4638 330.418 82.152 330.418 82.9233C330.418 83.6946 330.261 84.3786 329.945 84.9751C329.63 85.5717 329.146 86.0405 328.494 86.3814C327.842 86.718 327.009 86.8864 325.995 86.8864H322.415V85.4545H325.944C326.643 85.4545 327.205 85.3523 327.631 85.1477C328.062 84.9432 328.373 84.6534 328.565 84.2784C328.761 83.8991 328.859 83.4474 328.859 82.9233C328.859 82.3991 328.761 81.9411 328.565 81.549C328.369 81.157 328.055 80.8544 327.625 80.6413C327.195 80.424 326.626 80.3153 325.918 80.3153H323.131V92H321.546ZM327.708 86.1193L330.93 92H329.089L325.918 86.1193H327.708ZM335.744 92.2301C335.122 92.2301 334.558 92.1129 334.051 91.8786C333.544 91.6399 333.141 91.2969 332.843 90.8494C332.544 90.3977 332.395 89.8523 332.395 89.2131C332.395 88.6506 332.506 88.1946 332.727 87.8452C332.949 87.4915 333.245 87.2145 333.616 87.0142C333.987 86.8139 334.396 86.6648 334.843 86.5668C335.295 86.4645 335.749 86.3835 336.205 86.3239C336.801 86.2472 337.285 86.1896 337.656 86.1513C338.031 86.1087 338.303 86.0384 338.474 85.9403C338.649 85.8423 338.736 85.6719 338.736 85.429V85.3778C338.736 84.7472 338.563 84.2571 338.218 83.9077C337.877 83.5582 337.36 83.3835 336.665 83.3835C335.945 83.3835 335.38 83.5412 334.971 83.8565C334.562 84.1719 334.274 84.5085 334.108 84.8665L332.676 84.3551C332.932 83.7585 333.273 83.294 333.699 82.9616C334.129 82.625 334.598 82.3906 335.105 82.2585C335.617 82.1222 336.119 82.054 336.614 82.054C336.929 82.054 337.291 82.0923 337.7 82.169C338.114 82.2415 338.512 82.3928 338.896 82.6229C339.284 82.853 339.605 83.2003 339.861 83.6648C340.117 84.1293 340.244 84.7514 340.244 85.5312V92H338.736V90.6705H338.659C338.557 90.8835 338.387 91.1115 338.148 91.3544C337.909 91.5973 337.592 91.804 337.195 91.9744C336.799 92.1449 336.316 92.2301 335.744 92.2301ZM335.975 90.875C336.571 90.875 337.074 90.7578 337.483 90.5234C337.896 90.2891 338.208 89.9865 338.416 89.6158C338.629 89.245 338.736 88.8551 338.736 88.446V87.0653C338.672 87.142 338.531 87.2124 338.314 87.2763C338.101 87.3359 337.854 87.3892 337.573 87.4361C337.296 87.4787 337.025 87.517 336.761 87.5511C336.501 87.581 336.29 87.6065 336.128 87.6278C335.736 87.679 335.369 87.7621 335.029 87.8771C334.692 87.9879 334.419 88.1562 334.21 88.3821C334.006 88.6037 333.904 88.9062 333.904 89.2898C333.904 89.8139 334.097 90.2102 334.485 90.4787C334.877 90.7429 335.374 90.875 335.975 90.875ZM344.506 86.0938V92H342.998V82.1818H344.455V83.7159H344.583C344.813 83.2173 345.163 82.8168 345.631 82.5142C346.1 82.2074 346.705 82.054 347.447 82.054C348.112 82.054 348.693 82.1903 349.192 82.4631C349.69 82.7315 350.078 83.1406 350.355 83.6903C350.632 84.2358 350.771 84.9261 350.771 85.7614V92H349.262V85.8636C349.262 85.0923 349.062 84.4915 348.661 84.0611C348.261 83.6264 347.711 83.4091 347.012 83.4091C346.531 83.4091 346.1 83.5135 345.721 83.7223C345.346 83.9311 345.05 84.2358 344.832 84.6364C344.615 85.0369 344.506 85.5227 344.506 86.0938ZM357.235 92.2045C356.416 92.2045 355.694 91.9979 355.068 91.5845C354.441 91.1669 353.951 90.5788 353.597 89.8203C353.244 89.0575 353.067 88.1562 353.067 87.1165C353.067 86.0852 353.244 85.1903 353.597 84.4318C353.951 83.6733 354.443 83.0874 355.074 82.674C355.705 82.2607 356.433 82.054 357.26 82.054C357.899 82.054 358.404 82.1605 358.775 82.3736C359.15 82.5824 359.436 82.821 359.632 83.0895C359.832 83.3537 359.987 83.571 360.098 83.7415H360.226V78.9091H361.735V92H360.277V90.4915H360.098C359.987 90.6705 359.83 90.8963 359.625 91.169C359.421 91.4375 359.129 91.6783 358.749 91.8913C358.37 92.1001 357.865 92.2045 357.235 92.2045ZM357.439 90.8494C358.044 90.8494 358.556 90.6918 358.973 90.3764C359.391 90.0568 359.708 89.6158 359.926 89.0533C360.143 88.4865 360.252 87.8324 360.252 87.0909C360.252 86.358 360.145 85.7166 359.932 85.1669C359.719 84.6129 359.404 84.1825 358.986 83.8757C358.568 83.5646 358.053 83.4091 357.439 83.4091C356.8 83.4091 356.267 83.5732 355.841 83.9013C355.419 84.2251 355.102 84.6662 354.889 85.2244C354.68 85.7784 354.575 86.4006 354.575 87.0909C354.575 87.7898 354.682 88.4247 354.895 88.9957C355.112 89.5625 355.432 90.0142 355.854 90.3509C356.28 90.6832 356.808 90.8494 357.439 90.8494ZM368.695 92.2045C367.809 92.2045 367.031 91.9936 366.362 91.5717C365.698 91.1499 365.178 90.5597 364.803 89.8011C364.432 89.0426 364.247 88.1562 364.247 87.142C364.247 86.1193 364.432 85.2266 364.803 84.4638C365.178 83.701 365.698 83.1087 366.362 82.6868C367.031 82.2649 367.809 82.054 368.695 82.054C369.582 82.054 370.357 82.2649 371.022 82.6868C371.691 83.1087 372.211 83.701 372.582 84.4638C372.957 85.2266 373.144 86.1193 373.144 87.142C373.144 88.1562 372.957 89.0426 372.582 89.8011C372.211 90.5597 371.691 91.1499 371.022 91.5717C370.357 91.9936 369.582 92.2045 368.695 92.2045ZM368.695 90.8494C369.369 90.8494 369.923 90.6768 370.357 90.3317C370.792 89.9865 371.114 89.5327 371.323 88.9702C371.531 88.4077 371.636 87.7983 371.636 87.142C371.636 86.4858 371.531 85.8743 371.323 85.3075C371.114 84.7408 370.792 84.2827 370.357 83.9332C369.923 83.5838 369.369 83.4091 368.695 83.4091C368.022 83.4091 367.468 83.5838 367.034 83.9332C366.599 84.2827 366.277 84.7408 366.068 85.3075C365.86 85.8743 365.755 86.4858 365.755 87.142C365.755 87.7983 365.86 88.4077 366.068 88.9702C366.277 89.5327 366.599 89.9865 367.034 90.3317C367.468 90.6768 368.022 90.8494 368.695 90.8494ZM375.447 92V82.1818H376.904V83.7159H377.032C377.237 83.1918 377.567 82.7848 378.023 82.495C378.479 82.201 379.027 82.054 379.666 82.054C380.314 82.054 380.853 82.201 381.283 82.495C381.718 82.7848 382.056 83.1918 382.299 83.7159H382.402C382.653 83.2088 383.03 82.8061 383.533 82.5078C384.036 82.2053 384.639 82.054 385.342 82.054C386.22 82.054 386.938 82.3288 387.496 82.8786C388.054 83.424 388.333 84.2741 388.333 85.429V92H386.825V85.429C386.825 84.7045 386.627 84.1868 386.23 83.8757C385.834 83.5646 385.368 83.4091 384.831 83.4091C384.14 83.4091 383.605 83.6179 383.226 84.0355C382.847 84.4489 382.657 84.973 382.657 85.608V92H381.123V85.2756C381.123 84.7173 380.942 84.2678 380.58 83.9268C380.218 83.5817 379.751 83.4091 379.18 83.4091C378.788 83.4091 378.422 83.5135 378.081 83.7223C377.744 83.9311 377.471 84.2209 377.262 84.5916C377.058 84.9581 376.956 85.3821 376.956 85.8636V92H375.447ZM288.42 114V100.909H296.27V102.315H290.005V106.739H295.682V108.145H290.005V114H288.42ZM302.048 114.205C301.162 114.205 300.384 113.994 299.715 113.572C299.05 113.15 298.53 112.56 298.155 111.801C297.785 111.043 297.599 110.156 297.599 109.142C297.599 108.119 297.785 107.227 298.155 106.464C298.53 105.701 299.05 105.109 299.715 104.687C300.384 104.265 301.162 104.054 302.048 104.054C302.934 104.054 303.71 104.265 304.375 104.687C305.044 105.109 305.564 105.701 305.934 106.464C306.309 107.227 306.497 108.119 306.497 109.142C306.497 110.156 306.309 111.043 305.934 111.801C305.564 112.56 305.044 113.15 304.375 113.572C303.71 113.994 302.934 114.205 302.048 114.205ZM302.048 112.849C302.721 112.849 303.275 112.677 303.71 112.332C304.145 111.987 304.466 111.533 304.675 110.97C304.884 110.408 304.988 109.798 304.988 109.142C304.988 108.486 304.884 107.874 304.675 107.308C304.466 106.741 304.145 106.283 303.71 105.933C303.275 105.584 302.721 105.409 302.048 105.409C301.375 105.409 300.821 105.584 300.386 105.933C299.951 106.283 299.63 106.741 299.421 107.308C299.212 107.874 299.108 108.486 299.108 109.142C299.108 109.798 299.212 110.408 299.421 110.97C299.63 111.533 299.951 111.987 300.386 112.332C300.821 112.677 301.375 112.849 302.048 112.849ZM308.8 114V104.182H310.257V105.665H310.359C310.538 105.179 310.862 104.785 311.331 104.482C311.8 104.18 312.328 104.028 312.916 104.028C313.027 104.028 313.165 104.031 313.332 104.035C313.498 104.039 313.623 104.045 313.709 104.054V105.588C313.658 105.575 313.54 105.556 313.357 105.531C313.178 105.501 312.989 105.486 312.788 105.486C312.311 105.486 311.885 105.586 311.51 105.786C311.139 105.982 310.845 106.255 310.628 106.604C310.415 106.95 310.308 107.344 310.308 107.787V114H308.8ZM315.497 114V104.182H316.954V105.716H317.082C317.287 105.192 317.617 104.785 318.073 104.495C318.529 104.201 319.076 104.054 319.716 104.054C320.363 104.054 320.902 104.201 321.333 104.495C321.767 104.785 322.106 105.192 322.349 105.716H322.451C322.703 105.209 323.08 104.806 323.583 104.508C324.086 104.205 324.689 104.054 325.392 104.054C326.27 104.054 326.988 104.329 327.546 104.879C328.104 105.424 328.383 106.274 328.383 107.429V114H326.875V107.429C326.875 106.705 326.677 106.187 326.28 105.876C325.884 105.565 325.417 105.409 324.88 105.409C324.19 105.409 323.655 105.618 323.276 106.036C322.897 106.449 322.707 106.973 322.707 107.608V114H321.173V107.276C321.173 106.717 320.992 106.268 320.63 105.927C320.267 105.582 319.801 105.409 319.23 105.409C318.838 105.409 318.471 105.513 318.13 105.722C317.794 105.931 317.521 106.221 317.312 106.592C317.108 106.958 317.005 107.382 317.005 107.864V114H315.497ZM338.096 106.381L336.741 106.764C336.656 106.538 336.53 106.319 336.364 106.106C336.202 105.888 335.98 105.71 335.699 105.569C335.418 105.428 335.058 105.358 334.619 105.358C334.018 105.358 333.517 105.496 333.117 105.773C332.72 106.046 332.522 106.393 332.522 106.815C332.522 107.19 332.658 107.487 332.931 107.704C333.204 107.921 333.63 108.102 334.21 108.247L335.667 108.605C336.545 108.818 337.199 109.144 337.629 109.583C338.06 110.018 338.275 110.578 338.275 111.264C338.275 111.827 338.113 112.33 337.789 112.773C337.47 113.216 337.022 113.565 336.447 113.821C335.872 114.077 335.203 114.205 334.44 114.205C333.438 114.205 332.609 113.987 331.953 113.553C331.297 113.118 330.881 112.483 330.707 111.648L332.139 111.29C332.275 111.818 332.533 112.214 332.912 112.479C333.296 112.743 333.796 112.875 334.414 112.875C335.117 112.875 335.676 112.726 336.089 112.428C336.506 112.125 336.715 111.763 336.715 111.341C336.715 111 336.596 110.714 336.357 110.484C336.119 110.25 335.752 110.075 335.258 109.96L333.622 109.577C332.722 109.364 332.062 109.033 331.64 108.586C331.222 108.134 331.014 107.57 331.014 106.892C331.014 106.338 331.169 105.848 331.48 105.422C331.796 104.996 332.224 104.661 332.765 104.418C333.31 104.175 333.928 104.054 334.619 104.054C335.59 104.054 336.353 104.267 336.907 104.693C337.465 105.119 337.862 105.682 338.096 106.381Z" fill="#292C33"/>
<rect x="13.75" y="200.75" width="198.5" height="98.5" rx="6.25" fill="white" stroke="#292C33" stroke-width="1.5"/>
<path d="M53.9063 257H52.2444L57.0512 243.909H58.6876L63.4944 257H61.8325L57.9205 245.98H57.8183L53.9063 257ZM54.52 251.886H61.2188V253.293H54.52V251.886ZM72.2835 249.381L70.9284 249.764C70.8431 249.538 70.7174 249.319 70.5512 249.106C70.3893 248.888 70.1677 248.71 69.8865 248.569C69.6052 248.428 69.2451 248.358 68.8062 248.358C68.2053 248.358 67.7046 248.496 67.3041 248.773C66.9078 249.046 66.7096 249.393 66.7096 249.815C66.7096 250.19 66.846 250.487 67.1187 250.704C67.3914 250.921 67.8176 251.102 68.3971 251.247L69.8545 251.605C70.7323 251.818 71.3865 252.144 71.8169 252.583C72.2472 253.018 72.4624 253.578 72.4624 254.264C72.4624 254.827 72.3005 255.33 71.9767 255.773C71.657 256.216 71.2096 256.565 70.6343 256.821C70.059 257.077 69.39 257.205 68.6272 257.205C67.6258 257.205 66.797 256.987 66.1407 256.553C65.4845 256.118 65.069 255.483 64.8943 254.648L66.3261 254.29C66.4624 254.818 66.7203 255.214 67.0995 255.479C67.483 255.743 67.9838 255.875 68.6017 255.875C69.3048 255.875 69.863 255.726 70.2764 255.428C70.694 255.125 70.9028 254.763 70.9028 254.341C70.9028 254 70.7835 253.714 70.5448 253.484C70.3062 253.25 69.9397 253.075 69.4454 252.96L67.809 252.577C66.9099 252.364 66.2494 252.033 65.8275 251.586C65.4099 251.134 65.2011 250.57 65.2011 249.892C65.2011 249.338 65.3566 248.848 65.6677 248.422C65.983 247.996 66.4113 247.661 66.9525 247.418C67.498 247.175 68.1159 247.054 68.8062 247.054C69.7778 247.054 70.5406 247.267 71.0945 247.693C71.6528 248.119 72.0491 248.682 72.2835 249.381ZM81.6878 249.381L80.3327 249.764C80.2474 249.538 80.1217 249.319 79.9555 249.106C79.7936 248.888 79.572 248.71 79.2907 248.569C79.0095 248.428 78.6494 248.358 78.2105 248.358C77.6096 248.358 77.1089 248.496 76.7084 248.773C76.3121 249.046 76.1139 249.393 76.1139 249.815C76.1139 250.19 76.2503 250.487 76.523 250.704C76.7957 250.921 77.2219 251.102 77.8014 251.247L79.2588 251.605C80.1366 251.818 80.7907 252.144 81.2211 252.583C81.6515 253.018 81.8667 253.578 81.8667 254.264C81.8667 254.827 81.7048 255.33 81.3809 255.773C81.0613 256.216 80.6139 256.565 80.0386 256.821C79.4633 257.077 78.7943 257.205 78.0315 257.205C77.0301 257.205 76.2013 256.987 75.545 256.553C74.8888 256.118 74.4733 255.483 74.2986 254.648L75.7304 254.29C75.8667 254.818 76.1246 255.214 76.5038 255.479C76.8873 255.743 77.3881 255.875 78.0059 255.875C78.7091 255.875 79.2673 255.726 79.6807 255.428C80.0983 255.125 80.3071 254.763 80.3071 254.341C80.3071 254 80.1878 253.714 79.9491 253.484C79.7105 253.25 79.344 253.075 78.8497 252.96L77.2133 252.577C76.3142 252.364 75.6537 252.033 75.2318 251.586C74.8142 251.134 74.6054 250.57 74.6054 249.892C74.6054 249.338 74.7609 248.848 75.072 248.422C75.3873 247.996 75.8156 247.661 76.3568 247.418C76.9023 247.175 77.5202 247.054 78.2105 247.054C79.1821 247.054 79.9449 247.267 80.4988 247.693C81.0571 248.119 81.4534 248.682 81.6878 249.381ZM88.254 257.205C87.308 257.205 86.4919 256.996 85.8058 256.578C85.124 256.156 84.5977 255.568 84.227 254.814C83.8605 254.055 83.6773 253.173 83.6773 252.168C83.6773 251.162 83.8605 250.276 84.227 249.509C84.5977 248.737 85.1134 248.136 85.7739 247.706C86.4387 247.271 87.2142 247.054 88.1006 247.054C88.6119 247.054 89.1169 247.139 89.6155 247.31C90.1141 247.48 90.5679 247.757 90.977 248.141C91.3861 248.52 91.7121 249.023 91.955 249.649C92.1979 250.276 92.3193 251.047 92.3193 251.963V252.602H84.7512V251.298H90.7852C90.7852 250.744 90.6744 250.25 90.4529 249.815C90.2355 249.381 89.9244 249.038 89.5196 248.786C89.1191 248.535 88.646 248.409 88.1006 248.409C87.4997 248.409 86.9798 248.558 86.5409 248.857C86.1063 249.151 85.7718 249.534 85.5374 250.007C85.303 250.48 85.1858 250.987 85.1858 251.528V252.398C85.1858 253.139 85.3137 253.768 85.5693 254.283C85.8293 254.795 86.1894 255.185 86.6496 255.453C87.1098 255.717 87.6446 255.849 88.254 255.849C88.6503 255.849 89.0083 255.794 89.3279 255.683C89.6517 255.568 89.9308 255.398 90.1652 255.172C90.3996 254.942 90.5807 254.656 90.7085 254.315L92.1659 254.724C92.0125 255.219 91.7547 255.653 91.3925 256.028C91.0303 256.399 90.5828 256.689 90.0502 256.898C89.5175 257.102 88.9188 257.205 88.254 257.205ZM101.569 249.381L100.214 249.764C100.128 249.538 100.003 249.319 99.8364 249.106C99.6744 248.888 99.4529 248.71 99.1716 248.569C98.8904 248.428 98.5303 248.358 98.0914 248.358C97.4905 248.358 96.9898 248.496 96.5892 248.773C96.1929 249.046 95.9948 249.393 95.9948 249.815C95.9948 250.19 96.1311 250.487 96.4039 250.704C96.6766 250.921 97.1027 251.102 97.6823 251.247L99.1396 251.605C100.017 251.818 100.672 252.144 101.102 252.583C101.532 253.018 101.748 253.578 101.748 254.264C101.748 254.827 101.586 255.33 101.262 255.773C100.942 256.216 100.495 256.565 99.9195 256.821C99.3442 257.077 98.6752 257.205 97.9124 257.205C96.911 257.205 96.0821 256.987 95.4259 256.553C94.7696 256.118 94.3541 255.483 94.1794 254.648L95.6112 254.29C95.7476 254.818 96.0054 255.214 96.3847 255.479C96.7682 255.743 97.2689 255.875 97.8868 255.875C98.5899 255.875 99.1482 255.726 99.5615 255.428C99.9791 255.125 100.188 254.763 100.188 254.341C100.188 254 100.069 253.714 99.83 253.484C99.5914 253.25 99.2249 253.075 98.7306 252.96L97.0942 252.577C96.195 252.364 95.5345 252.033 95.1127 251.586C94.695 251.134 94.4862 250.57 94.4862 249.892C94.4862 249.338 94.6418 248.848 94.9529 248.422C95.2682 247.996 95.6965 247.661 96.2377 247.418C96.7831 247.175 97.401 247.054 98.0914 247.054C99.0629 247.054 99.8257 247.267 100.38 247.693C100.938 248.119 101.334 248.682 101.569 249.381ZM110.973 249.381L109.618 249.764C109.533 249.538 109.407 249.319 109.241 249.106C109.079 248.888 108.857 248.71 108.576 248.569C108.295 248.428 107.935 248.358 107.496 248.358C106.895 248.358 106.394 248.496 105.994 248.773C105.597 249.046 105.399 249.393 105.399 249.815C105.399 250.19 105.535 250.487 105.808 250.704C106.081 250.921 106.507 251.102 107.087 251.247L108.544 251.605C109.422 251.818 110.076 252.144 110.506 252.583C110.937 253.018 111.152 253.578 111.152 254.264C111.152 254.827 110.99 255.33 110.666 255.773C110.347 256.216 109.899 256.565 109.324 256.821C108.748 257.077 108.079 257.205 107.317 257.205C106.315 257.205 105.486 256.987 104.83 256.553C104.174 256.118 103.758 255.483 103.584 254.648L105.016 254.29C105.152 254.818 105.41 255.214 105.789 255.479C106.172 255.743 106.673 255.875 107.291 255.875C107.994 255.875 108.552 255.726 108.966 255.428C109.383 255.125 109.592 254.763 109.592 254.341C109.592 254 109.473 253.714 109.234 253.484C108.996 253.25 108.629 253.075 108.135 252.96L106.498 252.577C105.599 252.364 104.939 252.033 104.517 251.586C104.099 251.134 103.891 250.57 103.891 249.892C103.891 249.338 104.046 248.848 104.357 248.422C104.672 247.996 105.101 247.661 105.642 247.418C106.187 247.175 106.805 247.054 107.496 247.054C108.467 247.054 109.23 247.267 109.784 247.693C110.342 248.119 110.739 248.682 110.973 249.381ZM122.857 247.182V248.46H117.565V247.182H122.857ZM119.15 257V245.827C119.15 245.264 119.282 244.795 119.546 244.42C119.81 244.045 120.153 243.764 120.575 243.577C120.997 243.389 121.443 243.295 121.911 243.295C122.282 243.295 122.585 243.325 122.819 243.385C123.053 243.445 123.228 243.5 123.343 243.551L122.908 244.855C122.832 244.83 122.725 244.798 122.589 244.759C122.457 244.721 122.282 244.702 122.065 244.702C121.566 244.702 121.206 244.827 120.984 245.079C120.767 245.33 120.658 245.699 120.658 246.185V257H119.15ZM124.972 257V247.182H126.48V257H124.972ZM125.739 245.545C125.445 245.545 125.191 245.445 124.978 245.245C124.769 245.045 124.665 244.804 124.665 244.523C124.665 244.241 124.769 244.001 124.978 243.8C125.191 243.6 125.445 243.5 125.739 243.5C126.033 243.5 126.284 243.6 126.493 243.8C126.706 244.001 126.812 244.241 126.812 244.523C126.812 244.804 126.706 245.045 126.493 245.245C126.284 245.445 126.033 245.545 125.739 245.545ZM133.513 247.182V248.46H128.425V247.182H133.513ZM129.908 244.83H131.416V254.188C131.416 254.614 131.478 254.933 131.602 255.146C131.729 255.355 131.891 255.496 132.087 255.568C132.288 255.636 132.499 255.67 132.72 255.67C132.886 255.67 133.023 255.662 133.129 255.645C133.236 255.624 133.321 255.607 133.385 255.594L133.692 256.949C133.59 256.987 133.447 257.026 133.264 257.064C133.08 257.107 132.848 257.128 132.567 257.128C132.141 257.128 131.723 257.036 131.314 256.853C130.909 256.67 130.573 256.391 130.304 256.016C130.04 255.641 129.908 255.168 129.908 254.597V244.83ZM137.291 251.094V257H135.782V247.182H137.239V248.716H137.367C137.597 248.217 137.947 247.817 138.416 247.514C138.884 247.207 139.489 247.054 140.231 247.054C140.896 247.054 141.477 247.19 141.976 247.463C142.475 247.732 142.862 248.141 143.139 248.69C143.416 249.236 143.555 249.926 143.555 250.761V257H142.046V250.864C142.046 250.092 141.846 249.491 141.445 249.061C141.045 248.626 140.495 248.409 139.796 248.409C139.315 248.409 138.884 248.513 138.505 248.722C138.13 248.931 137.834 249.236 137.617 249.636C137.399 250.037 137.291 250.523 137.291 251.094ZM150.428 257.205C149.482 257.205 148.666 256.996 147.98 256.578C147.298 256.156 146.772 255.568 146.401 254.814C146.034 254.055 145.851 253.173 145.851 252.168C145.851 251.162 146.034 250.276 146.401 249.509C146.772 248.737 147.287 248.136 147.948 247.706C148.612 247.271 149.388 247.054 150.274 247.054C150.786 247.054 151.291 247.139 151.789 247.31C152.288 247.48 152.742 247.757 153.151 248.141C153.56 248.52 153.886 249.023 154.129 249.649C154.372 250.276 154.493 251.047 154.493 251.963V252.602H146.925V251.298H152.959C152.959 250.744 152.848 250.25 152.627 249.815C152.409 249.381 152.098 249.038 151.693 248.786C151.293 248.535 150.82 248.409 150.274 248.409C149.674 248.409 149.154 248.558 148.715 248.857C148.28 249.151 147.946 249.534 147.711 250.007C147.477 250.48 147.36 250.987 147.36 251.528V252.398C147.36 253.139 147.487 253.768 147.743 254.283C148.003 254.795 148.363 255.185 148.823 255.453C149.284 255.717 149.818 255.849 150.428 255.849C150.824 255.849 151.182 255.794 151.502 255.683C151.826 255.568 152.105 255.398 152.339 255.172C152.573 254.942 152.755 254.656 152.882 254.315L154.34 254.724C154.186 255.219 153.929 255.653 153.566 256.028C153.204 256.399 152.757 256.689 152.224 256.898C151.691 257.102 151.093 257.205 150.428 257.205ZM163.742 249.381L162.387 249.764C162.302 249.538 162.176 249.319 162.01 249.106C161.848 248.888 161.627 248.71 161.345 248.569C161.064 248.428 160.704 248.358 160.265 248.358C159.664 248.358 159.164 248.496 158.763 248.773C158.367 249.046 158.169 249.393 158.169 249.815C158.169 250.19 158.305 250.487 158.578 250.704C158.85 250.921 159.277 251.102 159.856 251.247L161.313 251.605C162.191 251.818 162.845 252.144 163.276 252.583C163.706 253.018 163.921 253.578 163.921 254.264C163.921 254.827 163.759 255.33 163.436 255.773C163.116 256.216 162.669 256.565 162.093 256.821C161.518 257.077 160.849 257.205 160.086 257.205C159.085 257.205 158.256 256.987 157.6 256.553C156.943 256.118 156.528 255.483 156.353 254.648L157.785 254.29C157.921 254.818 158.179 255.214 158.559 255.479C158.942 255.743 159.443 255.875 160.061 255.875C160.764 255.875 161.322 255.726 161.735 255.428C162.153 255.125 162.362 254.763 162.362 254.341C162.362 254 162.242 253.714 162.004 253.484C161.765 253.25 161.399 253.075 160.904 252.96L159.268 252.577C158.369 252.364 157.708 252.033 157.286 251.586C156.869 251.134 156.66 250.57 156.66 249.892C156.66 249.338 156.816 248.848 157.127 248.422C157.442 247.996 157.87 247.661 158.411 247.418C158.957 247.175 159.575 247.054 160.265 247.054C161.237 247.054 162 247.267 162.554 247.693C163.112 248.119 163.508 248.682 163.742 249.381ZM173.147 249.381L171.792 249.764C171.706 249.538 171.581 249.319 171.415 249.106C171.253 248.888 171.031 248.71 170.75 248.569C170.468 248.428 170.108 248.358 169.669 248.358C169.069 248.358 168.568 248.496 168.167 248.773C167.771 249.046 167.573 249.393 167.573 249.815C167.573 250.19 167.709 250.487 167.982 250.704C168.255 250.921 168.681 251.102 169.26 251.247L170.718 251.605C171.596 251.818 172.25 252.144 172.68 252.583C173.111 253.018 173.326 253.578 173.326 254.264C173.326 254.827 173.164 255.33 172.84 255.773C172.52 256.216 172.073 256.565 171.498 256.821C170.922 257.077 170.253 257.205 169.491 257.205C168.489 257.205 167.66 256.987 167.004 256.553C166.348 256.118 165.932 255.483 165.758 254.648L167.189 254.29C167.326 254.818 167.584 255.214 167.963 255.479C168.346 255.743 168.847 255.875 169.465 255.875C170.168 255.875 170.726 255.726 171.14 255.428C171.557 255.125 171.766 254.763 171.766 254.341C171.766 254 171.647 253.714 171.408 253.484C171.169 253.25 170.803 253.075 170.309 252.96L168.672 252.577C167.773 252.364 167.113 252.033 166.691 251.586C166.273 251.134 166.064 250.57 166.064 249.892C166.064 249.338 166.22 248.848 166.531 248.422C166.846 247.996 167.275 247.661 167.816 247.418C168.361 247.175 168.979 247.054 169.669 247.054C170.641 247.054 171.404 247.267 171.958 247.693C172.516 248.119 172.912 248.682 173.147 249.381Z" fill="#292C33"/>
<rect x="413.75" y="200.75" width="198.5" height="98.5" rx="6.25" fill="white" stroke="#292C33" stroke-width="1.5"/>
<path d="M466.096 232.909H467.988L472.437 243.776H472.59L477.039 232.909H478.931V246H477.448V236.054H477.32L473.229 246H471.798L467.707 236.054H467.579V246H466.096V232.909ZM488.093 241.986V236.182H489.601V246H488.093V244.338H487.99C487.76 244.837 487.402 245.261 486.916 245.61C486.431 245.955 485.817 246.128 485.076 246.128C484.462 246.128 483.916 245.994 483.439 245.725C482.962 245.452 482.587 245.043 482.314 244.498C482.041 243.948 481.905 243.256 481.905 242.42V236.182H483.414V242.318C483.414 243.034 483.614 243.605 484.014 244.031C484.419 244.457 484.935 244.67 485.561 244.67C485.936 244.67 486.318 244.575 486.706 244.383C487.098 244.191 487.426 243.897 487.69 243.501C487.958 243.104 488.093 242.599 488.093 241.986ZM496.634 236.182V237.46H491.546V236.182H496.634ZM493.029 233.83H494.537V243.188C494.537 243.614 494.599 243.933 494.723 244.146C494.851 244.355 495.013 244.496 495.209 244.568C495.409 244.636 495.62 244.67 495.841 244.67C496.008 244.67 496.144 244.662 496.25 244.645C496.357 244.624 496.442 244.607 496.506 244.594L496.813 245.949C496.711 245.987 496.568 246.026 496.385 246.064C496.201 246.107 495.969 246.128 495.688 246.128C495.262 246.128 494.844 246.036 494.435 245.853C494.03 245.67 493.694 245.391 493.425 245.016C493.161 244.641 493.029 244.168 493.029 243.597V233.83ZM501.792 246.23C501.17 246.23 500.606 246.113 500.098 245.879C499.591 245.64 499.189 245.297 498.89 244.849C498.592 244.398 498.443 243.852 498.443 243.213C498.443 242.651 498.554 242.195 498.775 241.845C498.997 241.491 499.293 241.214 499.664 241.014C500.035 240.814 500.444 240.665 500.891 240.567C501.343 240.464 501.797 240.384 502.253 240.324C502.849 240.247 503.333 240.19 503.704 240.151C504.079 240.109 504.351 240.038 504.522 239.94C504.696 239.842 504.784 239.672 504.784 239.429V239.378C504.784 238.747 504.611 238.257 504.266 237.908C503.925 237.558 503.407 237.384 502.713 237.384C501.993 237.384 501.428 237.541 501.019 237.857C500.61 238.172 500.322 238.509 500.156 238.866L498.724 238.355C498.98 237.759 499.321 237.294 499.747 236.962C500.177 236.625 500.646 236.391 501.153 236.259C501.665 236.122 502.167 236.054 502.662 236.054C502.977 236.054 503.339 236.092 503.748 236.169C504.162 236.241 504.56 236.393 504.944 236.623C505.331 236.853 505.653 237.2 505.909 237.665C506.165 238.129 506.292 238.751 506.292 239.531V246H504.784V244.67H504.707C504.605 244.884 504.434 245.112 504.196 245.354C503.957 245.597 503.64 245.804 503.243 245.974C502.847 246.145 502.363 246.23 501.792 246.23ZM502.022 244.875C502.619 244.875 503.122 244.758 503.531 244.523C503.944 244.289 504.255 243.987 504.464 243.616C504.677 243.245 504.784 242.855 504.784 242.446V241.065C504.72 241.142 504.579 241.212 504.362 241.276C504.149 241.336 503.902 241.389 503.62 241.436C503.343 241.479 503.073 241.517 502.809 241.551C502.549 241.581 502.338 241.607 502.176 241.628C501.784 241.679 501.417 241.762 501.076 241.877C500.74 241.988 500.467 242.156 500.258 242.382C500.054 242.604 499.951 242.906 499.951 243.29C499.951 243.814 500.145 244.21 500.533 244.479C500.925 244.743 501.422 244.875 502.022 244.875ZM513.316 236.182V237.46H508.228V236.182H513.316ZM509.71 233.83H511.219V243.188C511.219 243.614 511.281 243.933 511.404 244.146C511.532 244.355 511.694 244.496 511.89 244.568C512.09 244.636 512.301 244.67 512.523 244.67C512.689 244.67 512.826 244.662 512.932 244.645C513.039 244.624 513.124 244.607 513.188 244.594L513.495 245.949C513.392 245.987 513.25 246.026 513.066 246.064C512.883 246.107 512.651 246.128 512.37 246.128C511.943 246.128 511.526 246.036 511.117 245.853C510.712 245.67 510.375 245.391 510.107 245.016C509.843 244.641 509.71 244.168 509.71 243.597V233.83ZM519.596 246.205C518.65 246.205 517.834 245.996 517.148 245.578C516.466 245.156 515.94 244.568 515.569 243.814C515.202 243.055 515.019 242.173 515.019 241.168C515.019 240.162 515.202 239.276 515.569 238.509C515.94 237.737 516.455 237.136 517.116 236.706C517.78 236.271 518.556 236.054 519.442 236.054C519.954 236.054 520.459 236.139 520.957 236.31C521.456 236.48 521.91 236.757 522.319 237.141C522.728 237.52 523.054 238.023 523.297 238.649C523.54 239.276 523.661 240.047 523.661 240.963V241.602H516.093V240.298H522.127C522.127 239.744 522.016 239.25 521.795 238.815C521.577 238.381 521.266 238.038 520.861 237.786C520.461 237.535 519.988 237.409 519.442 237.409C518.842 237.409 518.322 237.558 517.883 237.857C517.448 238.151 517.114 238.534 516.879 239.007C516.645 239.48 516.528 239.987 516.528 240.528V241.398C516.528 242.139 516.655 242.768 516.911 243.283C517.171 243.795 517.531 244.185 517.991 244.453C518.452 244.717 518.986 244.849 519.596 244.849C519.992 244.849 520.35 244.794 520.67 244.683C520.994 244.568 521.273 244.398 521.507 244.172C521.741 243.942 521.922 243.656 522.05 243.315L523.508 243.724C523.354 244.219 523.097 244.653 522.734 245.028C522.372 245.399 521.925 245.689 521.392 245.898C520.859 246.102 520.261 246.205 519.596 246.205ZM533.908 246.23C533.285 246.23 532.721 246.113 532.214 245.879C531.707 245.64 531.304 245.297 531.006 244.849C530.707 244.398 530.558 243.852 530.558 243.213C530.558 242.651 530.669 242.195 530.891 241.845C531.112 241.491 531.408 241.214 531.779 241.014C532.15 240.814 532.559 240.665 533.006 240.567C533.458 240.464 533.912 240.384 534.368 240.324C534.964 240.247 535.448 240.19 535.819 240.151C536.194 240.109 536.467 240.038 536.637 239.94C536.812 239.842 536.899 239.672 536.899 239.429V239.378C536.899 238.747 536.726 238.257 536.381 237.908C536.04 237.558 535.523 237.384 534.828 237.384C534.108 237.384 533.543 237.541 533.134 237.857C532.725 238.172 532.437 238.509 532.271 238.866L530.839 238.355C531.095 237.759 531.436 237.294 531.862 236.962C532.293 236.625 532.761 236.391 533.268 236.259C533.78 236.122 534.283 236.054 534.777 236.054C535.092 236.054 535.454 236.092 535.864 236.169C536.277 236.241 536.675 236.393 537.059 236.623C537.447 236.853 537.768 237.2 538.024 237.665C538.28 238.129 538.408 238.751 538.408 239.531V246H536.899V244.67H536.822C536.72 244.884 536.55 245.112 536.311 245.354C536.072 245.597 535.755 245.804 535.359 245.974C534.962 246.145 534.479 246.23 533.908 246.23ZM534.138 244.875C534.734 244.875 535.237 244.758 535.646 244.523C536.06 244.289 536.371 243.987 536.579 243.616C536.793 243.245 536.899 242.855 536.899 242.446V241.065C536.835 241.142 536.695 241.212 536.477 241.276C536.264 241.336 536.017 241.389 535.736 241.436C535.459 241.479 535.188 241.517 534.924 241.551C534.664 241.581 534.453 241.607 534.291 241.628C533.899 241.679 533.533 241.762 533.192 241.877C532.855 241.988 532.582 242.156 532.373 242.382C532.169 242.604 532.067 242.906 532.067 243.29C532.067 243.814 532.261 244.21 532.648 244.479C533.04 244.743 533.537 244.875 534.138 244.875ZM542.669 240.094V246H541.161V236.182H542.618V237.716H542.746C542.976 237.217 543.326 236.817 543.794 236.514C544.263 236.207 544.868 236.054 545.61 236.054C546.275 236.054 546.856 236.19 547.355 236.463C547.853 236.732 548.241 237.141 548.518 237.69C548.795 238.236 548.934 238.926 548.934 239.761V246H547.425V239.864C547.425 239.092 547.225 238.491 546.824 238.061C546.424 237.626 545.874 237.409 545.175 237.409C544.694 237.409 544.263 237.513 543.884 237.722C543.509 237.931 543.213 238.236 542.995 238.636C542.778 239.037 542.669 239.523 542.669 240.094ZM555.398 246.205C554.579 246.205 553.857 245.998 553.231 245.585C552.604 245.167 552.114 244.579 551.761 243.82C551.407 243.058 551.23 242.156 551.23 241.116C551.23 240.085 551.407 239.19 551.761 238.432C552.114 237.673 552.606 237.087 553.237 236.674C553.868 236.261 554.597 236.054 555.423 236.054C556.062 236.054 556.567 236.161 556.938 236.374C557.313 236.582 557.599 236.821 557.795 237.089C557.995 237.354 558.15 237.571 558.261 237.741H558.389V232.909H559.898V246H558.44V244.491H558.261C558.15 244.67 557.993 244.896 557.788 245.169C557.584 245.437 557.292 245.678 556.913 245.891C556.533 246.1 556.028 246.205 555.398 246.205ZM555.602 244.849C556.207 244.849 556.719 244.692 557.136 244.376C557.554 244.057 557.871 243.616 558.089 243.053C558.306 242.487 558.415 241.832 558.415 241.091C558.415 240.358 558.308 239.717 558.095 239.167C557.882 238.613 557.567 238.183 557.149 237.876C556.731 237.565 556.216 237.409 555.602 237.409C554.963 237.409 554.43 237.573 554.004 237.901C553.582 238.225 553.265 238.666 553.052 239.224C552.843 239.778 552.739 240.401 552.739 241.091C552.739 241.79 552.845 242.425 553.058 242.996C553.275 243.562 553.595 244.014 554.017 244.351C554.443 244.683 554.972 244.849 555.602 244.849ZM481.983 259H480.397C480.304 258.544 480.14 258.143 479.905 257.798C479.675 257.453 479.394 257.163 479.061 256.929C478.733 256.69 478.369 256.511 477.968 256.392C477.568 256.273 477.15 256.213 476.716 256.213C475.923 256.213 475.205 256.413 474.561 256.814C473.922 257.214 473.413 257.805 473.034 258.585C472.659 259.364 472.471 260.321 472.471 261.455C472.471 262.588 472.659 263.545 473.034 264.325C473.413 265.104 473.922 265.695 474.561 266.095C475.205 266.496 475.923 266.696 476.716 266.696C477.15 266.696 477.568 266.636 477.968 266.517C478.369 266.398 478.733 266.221 479.061 265.987C479.394 265.748 479.675 265.456 479.905 265.111C480.14 264.761 480.304 264.361 480.397 263.909H481.983C481.863 264.578 481.646 265.177 481.331 265.705C481.015 266.234 480.623 266.683 480.154 267.054C479.686 267.42 479.159 267.7 478.576 267.891C477.996 268.083 477.376 268.179 476.716 268.179C475.599 268.179 474.606 267.906 473.737 267.361C472.868 266.815 472.184 266.04 471.685 265.034C471.186 264.028 470.937 262.835 470.937 261.455C470.937 260.074 471.186 258.881 471.685 257.875C472.184 256.869 472.868 256.094 473.737 255.548C474.606 255.003 475.599 254.73 476.716 254.73C477.376 254.73 477.996 254.826 478.576 255.018C479.159 255.21 479.686 255.491 480.154 255.862C480.623 256.228 481.015 256.675 481.331 257.204C481.646 257.728 481.863 258.327 481.983 259ZM484.34 268V258.182H485.797V259.665H485.899C486.078 259.179 486.402 258.785 486.871 258.482C487.34 258.18 487.868 258.028 488.456 258.028C488.567 258.028 488.705 258.031 488.872 258.035C489.038 258.039 489.164 258.045 489.249 258.054V259.588C489.198 259.575 489.08 259.556 488.897 259.531C488.718 259.501 488.529 259.486 488.328 259.486C487.851 259.486 487.425 259.586 487.05 259.786C486.679 259.982 486.385 260.255 486.168 260.604C485.955 260.95 485.848 261.344 485.848 261.787V268H484.34ZM494.727 268.205C493.84 268.205 493.063 267.994 492.394 267.572C491.729 267.15 491.209 266.56 490.834 265.801C490.463 265.043 490.278 264.156 490.278 263.142C490.278 262.119 490.463 261.227 490.834 260.464C491.209 259.701 491.729 259.109 492.394 258.687C493.063 258.265 493.84 258.054 494.727 258.054C495.613 258.054 496.389 258.265 497.053 258.687C497.722 259.109 498.242 259.701 498.613 260.464C498.988 261.227 499.176 262.119 499.176 263.142C499.176 264.156 498.988 265.043 498.613 265.801C498.242 266.56 497.722 267.15 497.053 267.572C496.389 267.994 495.613 268.205 494.727 268.205ZM494.727 266.849C495.4 266.849 495.954 266.677 496.389 266.332C496.823 265.987 497.145 265.533 497.354 264.97C497.563 264.408 497.667 263.798 497.667 263.142C497.667 262.486 497.563 261.874 497.354 261.308C497.145 260.741 496.823 260.283 496.389 259.933C495.954 259.584 495.4 259.409 494.727 259.409C494.053 259.409 493.499 259.584 493.065 259.933C492.63 260.283 492.308 260.741 492.1 261.308C491.891 261.874 491.786 262.486 491.786 263.142C491.786 263.798 491.891 264.408 492.1 264.97C492.308 265.533 492.63 265.987 493.065 266.332C493.499 266.677 494.053 266.849 494.727 266.849ZM508.433 260.381L507.078 260.764C506.993 260.538 506.867 260.319 506.701 260.106C506.539 259.888 506.317 259.71 506.036 259.569C505.755 259.428 505.395 259.358 504.956 259.358C504.355 259.358 503.854 259.496 503.453 259.773C503.057 260.046 502.859 260.393 502.859 260.815C502.859 261.19 502.995 261.487 503.268 261.704C503.541 261.921 503.967 262.102 504.547 262.247L506.004 262.605C506.882 262.818 507.536 263.144 507.966 263.583C508.397 264.018 508.612 264.578 508.612 265.264C508.612 265.827 508.45 266.33 508.126 266.773C507.806 267.216 507.359 267.565 506.784 267.821C506.208 268.077 505.539 268.205 504.777 268.205C503.775 268.205 502.946 267.987 502.29 267.553C501.634 267.118 501.218 266.483 501.044 265.648L502.475 265.29C502.612 265.818 502.87 266.214 503.249 266.479C503.632 266.743 504.133 266.875 504.751 266.875C505.454 266.875 506.012 266.726 506.426 266.428C506.843 266.125 507.052 265.763 507.052 265.341C507.052 265 506.933 264.714 506.694 264.484C506.456 264.25 506.089 264.075 505.595 263.96L503.958 263.577C503.059 263.364 502.399 263.033 501.977 262.586C501.559 262.134 501.35 261.57 501.35 260.892C501.35 260.338 501.506 259.848 501.817 259.422C502.132 258.996 502.561 258.661 503.102 258.418C503.647 258.175 504.265 258.054 504.956 258.054C505.927 258.054 506.69 258.267 507.244 258.693C507.802 259.119 508.199 259.682 508.433 260.381ZM517.837 260.381L516.482 260.764C516.397 260.538 516.271 260.319 516.105 260.106C515.943 259.888 515.721 259.71 515.44 259.569C515.159 259.428 514.799 259.358 514.36 259.358C513.759 259.358 513.258 259.496 512.858 259.773C512.461 260.046 512.263 260.393 512.263 260.815C512.263 261.19 512.4 261.487 512.672 261.704C512.945 261.921 513.371 262.102 513.951 262.247L515.408 262.605C516.286 262.818 516.94 263.144 517.371 263.583C517.801 264.018 518.016 264.578 518.016 265.264C518.016 265.827 517.854 266.33 517.53 266.773C517.211 267.216 516.763 267.565 516.188 267.821C515.613 268.077 514.944 268.205 514.181 268.205C513.18 268.205 512.351 267.987 511.694 267.553C511.038 267.118 510.623 266.483 510.448 265.648L511.88 265.29C512.016 265.818 512.274 266.214 512.653 266.479C513.037 266.743 513.537 266.875 514.155 266.875C514.858 266.875 515.417 266.726 515.83 266.428C516.248 266.125 516.456 265.763 516.456 265.341C516.456 265 516.337 264.714 516.099 264.484C515.86 264.25 515.493 264.075 514.999 263.96L513.363 263.577C512.464 263.364 511.803 263.033 511.381 262.586C510.964 262.134 510.755 261.57 510.755 260.892C510.755 260.338 510.91 259.848 511.221 259.422C511.537 258.996 511.965 258.661 512.506 258.418C513.052 258.175 513.67 258.054 514.36 258.054C515.331 258.054 516.094 258.267 516.648 258.693C517.206 259.119 517.603 259.682 517.837 260.381ZM524.276 268.205C523.389 268.205 522.612 267.994 521.942 267.572C521.278 267.15 520.758 266.56 520.383 265.801C520.012 265.043 519.827 264.156 519.827 263.142C519.827 262.119 520.012 261.227 520.383 260.464C520.758 259.701 521.278 259.109 521.942 258.687C522.612 258.265 523.389 258.054 524.276 258.054C525.162 258.054 525.938 258.265 526.602 258.687C527.271 259.109 527.791 259.701 528.162 260.464C528.537 261.227 528.724 262.119 528.724 263.142C528.724 264.156 528.537 265.043 528.162 265.801C527.791 266.56 527.271 267.15 526.602 267.572C525.938 267.994 525.162 268.205 524.276 268.205ZM524.276 266.849C524.949 266.849 525.503 266.677 525.938 266.332C526.372 265.987 526.694 265.533 526.903 264.97C527.112 264.408 527.216 263.798 527.216 263.142C527.216 262.486 527.112 261.874 526.903 261.308C526.694 260.741 526.372 260.283 525.938 259.933C525.503 259.584 524.949 259.409 524.276 259.409C523.602 259.409 523.048 259.584 522.614 259.933C522.179 260.283 521.857 260.741 521.648 261.308C521.44 261.874 521.335 262.486 521.335 263.142C521.335 263.798 521.44 264.408 521.648 264.97C521.857 265.533 522.179 265.987 522.614 266.332C523.048 266.677 523.602 266.849 524.276 266.849ZM538.704 258.182L535.073 268H533.539L529.909 258.182H531.545L534.255 266.006H534.357L537.068 258.182H538.704ZM544.46 268.205C543.514 268.205 542.698 267.996 542.012 267.578C541.33 267.156 540.804 266.568 540.433 265.814C540.067 265.055 539.883 264.173 539.883 263.168C539.883 262.162 540.067 261.276 540.433 260.509C540.804 259.737 541.319 259.136 541.98 258.706C542.645 258.271 543.42 258.054 544.307 258.054C544.818 258.054 545.323 258.139 545.822 258.31C546.32 258.48 546.774 258.757 547.183 259.141C547.592 259.52 547.918 260.023 548.161 260.649C548.404 261.276 548.525 262.047 548.525 262.963V263.602H540.957V262.298H546.991C546.991 261.744 546.881 261.25 546.659 260.815C546.442 260.381 546.131 260.038 545.726 259.786C545.325 259.535 544.852 259.409 544.307 259.409C543.706 259.409 543.186 259.558 542.747 259.857C542.312 260.151 541.978 260.534 541.743 261.007C541.509 261.48 541.392 261.987 541.392 262.528V263.398C541.392 264.139 541.52 264.768 541.775 265.283C542.035 265.795 542.395 266.185 542.856 266.453C543.316 266.717 543.851 266.849 544.46 266.849C544.856 266.849 545.214 266.794 545.534 266.683C545.858 266.568 546.137 266.398 546.371 266.172C546.606 265.942 546.787 265.656 546.915 265.315L548.372 265.724C548.219 266.219 547.961 266.653 547.599 267.028C547.236 267.399 546.789 267.689 546.256 267.898C545.724 268.102 545.125 268.205 544.46 268.205ZM550.82 268V258.182H552.278V259.665H552.38C552.559 259.179 552.883 258.785 553.351 258.482C553.82 258.18 554.349 258.028 554.937 258.028C555.047 258.028 555.186 258.031 555.352 258.035C555.518 258.039 555.644 258.045 555.729 258.054V259.588C555.678 259.575 555.561 259.556 555.378 259.531C555.199 259.501 555.009 259.486 554.809 259.486C554.331 259.486 553.905 259.586 553.53 259.786C553.16 259.982 552.866 260.255 552.648 260.604C552.435 260.95 552.329 261.344 552.329 261.787V268H550.82Z" fill="#292C33"/>
<rect x="213.75" y="360.75" width="198.5" height="98.5" rx="6.25" fill="white" stroke="#292C33" stroke-width="1.5"/>
<path d="M295.096 407.182C295.019 406.534 294.708 406.031 294.163 405.673C293.617 405.315 292.948 405.136 292.156 405.136C291.576 405.136 291.069 405.23 290.634 405.418C290.204 405.605 289.867 405.863 289.624 406.191C289.386 406.519 289.266 406.892 289.266 407.31C289.266 407.659 289.349 407.96 289.516 408.211C289.686 408.458 289.903 408.665 290.168 408.831C290.432 408.993 290.709 409.127 290.999 409.234C291.288 409.336 291.555 409.419 291.798 409.483L293.127 409.841C293.468 409.93 293.847 410.054 294.265 410.212C294.687 410.369 295.089 410.585 295.473 410.857C295.861 411.126 296.18 411.471 296.432 411.893C296.683 412.315 296.809 412.832 296.809 413.446C296.809 414.153 296.624 414.793 296.253 415.364C295.886 415.935 295.349 416.388 294.642 416.725C293.939 417.062 293.085 417.23 292.079 417.23C291.141 417.23 290.33 417.079 289.643 416.776C288.962 416.474 288.425 416.052 288.033 415.511C287.645 414.969 287.425 414.341 287.374 413.625H289.011C289.053 414.119 289.219 414.528 289.509 414.852C289.803 415.172 290.174 415.411 290.621 415.568C291.073 415.722 291.559 415.798 292.079 415.798C292.684 415.798 293.227 415.7 293.709 415.504C294.19 415.304 294.572 415.027 294.853 414.673C295.134 414.315 295.275 413.898 295.275 413.42C295.275 412.986 295.153 412.632 294.911 412.359C294.668 412.087 294.348 411.865 293.952 411.695C293.555 411.524 293.127 411.375 292.667 411.247L291.056 410.787C290.033 410.493 289.224 410.073 288.627 409.528C288.031 408.982 287.732 408.268 287.732 407.386C287.732 406.653 287.93 406.014 288.327 405.469C288.727 404.919 289.264 404.493 289.938 404.19C290.615 403.884 291.371 403.73 292.207 403.73C293.05 403.73 293.8 403.881 294.457 404.184C295.113 404.482 295.633 404.891 296.016 405.411C296.404 405.931 296.609 406.521 296.63 407.182H295.096ZM303.327 417.205C302.381 417.205 301.565 416.996 300.879 416.578C300.197 416.156 299.671 415.568 299.3 414.814C298.934 414.055 298.751 413.173 298.751 412.168C298.751 411.162 298.934 410.276 299.3 409.509C299.671 408.737 300.187 408.136 300.847 407.706C301.512 407.271 302.287 407.054 303.174 407.054C303.685 407.054 304.19 407.139 304.689 407.31C305.187 407.48 305.641 407.757 306.05 408.141C306.459 408.52 306.785 409.023 307.028 409.649C307.271 410.276 307.393 411.047 307.393 411.963V412.602H299.824V411.298H305.858C305.858 410.744 305.748 410.25 305.526 409.815C305.309 409.381 304.998 409.038 304.593 408.786C304.192 408.535 303.719 408.409 303.174 408.409C302.573 408.409 302.053 408.558 301.614 408.857C301.18 409.151 300.845 409.534 300.611 410.007C300.376 410.48 300.259 410.987 300.259 411.528V412.398C300.259 413.139 300.387 413.768 300.643 414.283C300.903 414.795 301.263 415.185 301.723 415.453C302.183 415.717 302.718 415.849 303.327 415.849C303.724 415.849 304.081 415.794 304.401 415.683C304.725 415.568 305.004 415.398 305.238 415.172C305.473 414.942 305.654 414.656 305.782 414.315L307.239 414.724C307.086 415.219 306.828 415.653 306.466 416.028C306.104 416.399 305.656 416.689 305.123 416.898C304.591 417.102 303.992 417.205 303.327 417.205ZM311.196 403.909V417H309.687V403.909H311.196ZM318.075 417.205C317.129 417.205 316.313 416.996 315.627 416.578C314.945 416.156 314.419 415.568 314.048 414.814C313.682 414.055 313.499 413.173 313.499 412.168C313.499 411.162 313.682 410.276 314.048 409.509C314.419 408.737 314.935 408.136 315.595 407.706C316.26 407.271 317.036 407.054 317.922 407.054C318.433 407.054 318.938 407.139 319.437 407.31C319.935 407.48 320.389 407.757 320.798 408.141C321.207 408.52 321.533 409.023 321.776 409.649C322.019 410.276 322.141 411.047 322.141 411.963V412.602H314.572V411.298H320.607C320.607 410.744 320.496 410.25 320.274 409.815C320.057 409.381 319.746 409.038 319.341 408.786C318.94 408.535 318.467 408.409 317.922 408.409C317.321 408.409 316.801 408.558 316.362 408.857C315.928 409.151 315.593 409.534 315.359 410.007C315.124 410.48 315.007 410.987 315.007 411.528V412.398C315.007 413.139 315.135 413.768 315.391 414.283C315.651 414.795 316.011 415.185 316.471 415.453C316.931 415.717 317.466 415.849 318.075 415.849C318.472 415.849 318.83 415.794 319.149 415.683C319.473 415.568 319.752 415.398 319.987 415.172C320.221 414.942 320.402 414.656 320.53 414.315L321.987 414.724C321.834 415.219 321.576 415.653 321.214 416.028C320.852 416.399 320.404 416.689 319.871 416.898C319.339 417.102 318.74 417.205 318.075 417.205ZM328.424 417.205C327.504 417.205 326.711 416.987 326.046 416.553C325.381 416.118 324.87 415.519 324.512 414.756C324.154 413.994 323.975 413.122 323.975 412.142C323.975 411.145 324.158 410.265 324.525 409.502C324.896 408.735 325.411 408.136 326.072 407.706C326.737 407.271 327.512 407.054 328.398 407.054C329.089 407.054 329.711 407.182 330.265 407.438C330.819 407.693 331.273 408.051 331.626 408.511C331.98 408.972 332.2 409.509 332.285 410.122H330.776C330.661 409.675 330.406 409.278 330.009 408.933C329.617 408.584 329.089 408.409 328.424 408.409C327.836 408.409 327.32 408.562 326.877 408.869C326.438 409.172 326.095 409.6 325.848 410.154C325.605 410.704 325.484 411.349 325.484 412.091C325.484 412.849 325.603 413.51 325.842 414.072C326.085 414.635 326.425 415.072 326.864 415.383C327.308 415.694 327.827 415.849 328.424 415.849C328.816 415.849 329.172 415.781 329.491 415.645C329.811 415.509 330.082 415.312 330.303 415.057C330.525 414.801 330.683 414.494 330.776 414.136H332.285C332.2 414.716 331.989 415.238 331.652 415.702C331.32 416.163 330.879 416.529 330.329 416.802C329.783 417.07 329.148 417.205 328.424 417.205ZM338.76 407.182V408.46H333.672V407.182H338.76ZM335.155 404.83H336.663V414.188C336.663 414.614 336.725 414.933 336.849 415.146C336.977 415.355 337.138 415.496 337.335 415.568C337.535 415.636 337.746 415.67 337.967 415.67C338.134 415.67 338.27 415.662 338.376 415.645C338.483 415.624 338.568 415.607 338.632 415.594L338.939 416.949C338.837 416.987 338.694 417.026 338.511 417.064C338.327 417.107 338.095 417.128 337.814 417.128C337.388 417.128 336.97 417.036 336.561 416.853C336.156 416.67 335.82 416.391 335.551 416.016C335.287 415.641 335.155 415.168 335.155 414.597V404.83Z" fill="#292C33"/>
<path d="M127.593 157.348L149.78 151.403L133.538 135.161L127.593 157.348Z" fill="black"/>
<path d="M487.131 346.377L464.945 352.322L481.186 368.564L487.131 346.377Z" fill="black"/>
<path d="M157.131 365.131L134.945 359.186L151.186 342.945L157.131 365.131Z" fill="black"/>
<path d="M293.493 248.754L313.385 237.27L313.385 260.239L293.493 248.754Z" fill="black"/>
</g>
<defs>
<clipPath id="clip0_4_1007">
<rect width="626" height="492" fill="white"/>
</clipPath>
</defs>
</svg>
