<svg width="1134" height="728" viewBox="0 0 1134 728" fill="none" xmlns="http://www.w3.org/2000/svg">
<rect width="1134" height="728" fill="#C7C7C7"/>
<rect width="1134" height="728" fill="#D9D9D9"/>
<line x1="342.96" y1="386.054" x2="490.96" y2="183.054" stroke="#BE4949" stroke-width="10" stroke-dasharray="20 20"/>
<line y1="-5" x2="203.841" y2="-5" transform="matrix(0.589118 0.808047 0.808047 -0.589118 715.34 380.849)" stroke="#3D72C2" stroke-width="10" stroke-dasharray="20 20"/>
<line x1="342.987" y1="385" x2="712.987" y2="384.003" stroke="#2E7B43" stroke-width="10"/>
<line x1="1039" y1="612.841" x2="1039" y2="361.618" stroke="#BE4949" stroke-width="10" stroke-dasharray="20 20"/>
<line y1="-5" x2="203.841" y2="-5" transform="matrix(-4.37114e-08 -1 -1 4.37114e-08 1015 361.841)" stroke="#3D72C2" stroke-width="10" stroke-dasharray="20 20"/>
<line x1="999.997" y1="613.014" x2="999" y2="243.013" stroke="#2E7B43" stroke-width="10"/>
<circle cx="343.5" cy="384.5" r="249.5" stroke="black" stroke-width="10"/>
<circle cx="206.5" cy="206.5" r="201.5" transform="matrix(1 0 0 -1 506 591)" stroke="black" stroke-width="10"/>
<circle cx="343.5" cy="384.5" r="6.5" fill="black"/>
<circle cx="5.5" cy="5.5" r="5.5" transform="matrix(1 0 0 -1 707 390)" fill="black"/>
<path d="M957 200.633V196.516C960.802 196.516 963.454 195.741 964.956 194.191C966.481 192.642 967.244 190.052 967.244 186.422V175.797C967.244 172.742 967.54 170.097 968.132 167.861C968.746 165.626 969.737 163.777 971.102 162.316C972.468 160.855 974.289 159.771 976.566 159.063C978.842 158.354 981.654 158 985 158V164.508C982.359 164.508 980.276 164.906 978.751 165.703C977.249 166.5 976.179 167.74 975.541 169.422C974.927 171.082 974.62 173.207 974.62 175.797V189.078C974.62 190.805 974.38 192.376 973.902 193.793C973.447 195.21 972.593 196.427 971.341 197.445C970.089 198.464 968.302 199.249 965.98 199.803C963.681 200.356 960.688 200.633 957 200.633ZM985 243C981.654 243 978.842 242.646 976.566 241.937C974.289 241.229 972.468 240.145 971.102 238.684C969.737 237.223 968.746 235.374 968.132 233.139C967.54 230.903 967.244 228.258 967.244 225.203V214.578C967.244 210.948 966.481 208.358 964.956 206.809C963.454 205.259 960.802 204.484 957 204.484V200.367C960.688 200.367 963.681 200.644 965.98 201.197C968.302 201.751 970.089 202.536 971.341 203.555C972.593 204.573 973.447 205.79 973.902 207.207C974.38 208.624 974.62 210.195 974.62 211.922V225.203C974.62 227.793 974.927 229.918 975.541 231.578C976.179 233.238 977.249 234.467 978.751 235.264C980.276 236.083 982.359 236.492 985 236.492V243ZM957 204.484V196.516H965.059V204.484H957Z" fill="black"/>
<path d="M925.631 179L925.211 209.667H920.343L919.923 179H925.631ZM922.777 222C921.742 222 920.854 221.632 920.112 220.896C919.371 220.16 919 219.278 919 218.25C919 217.222 919.371 216.34 920.112 215.604C920.854 214.868 921.742 214.5 922.777 214.5C923.812 214.5 924.701 214.868 925.442 215.604C926.183 216.34 926.554 217.222 926.554 218.25C926.554 218.931 926.379 219.556 926.03 220.125C925.694 220.694 925.239 221.153 924.666 221.5C924.106 221.833 923.477 222 922.777 222Z" fill="black"/>
<path d="M942.077 179L941.657 209.667H936.789L936.369 179H942.077ZM939.223 222C938.188 222 937.299 221.632 936.558 220.896C935.817 220.16 935.446 219.278 935.446 218.25C935.446 217.222 935.817 216.34 936.558 215.604C937.299 214.868 938.188 214.5 939.223 214.5C940.258 214.5 941.146 214.868 941.888 215.604C942.629 216.34 943 217.222 943 218.25C943 218.931 942.825 219.556 942.475 220.125C942.14 220.694 941.685 221.153 941.111 221.5C940.552 221.833 939.922 222 939.223 222Z" fill="black"/>
</svg>
